<svg width="80" height="80" viewBox="0 0 80 80" fill="none" xmlns="http://www.w3.org/2000/svg">
<circle cx="40.8" cy="39.9742" r="35.1999" fill="#DCEDFF"/>
<path fill-rule="evenodd" clip-rule="evenodd" d="M62.4142 22.9737C63.5089 25.1341 62.7322 27.7798 60.6849 28.9764L60.5207 29.0678C58.7633 29.9981 57.3497 34.8668 58.8734 39.6318C58.9445 39.7414 59.0139 39.8518 59.0815 39.9629L59.2796 40.2988C59.3118 40.3552 59.3437 40.4117 59.3752 40.4685L59.5601 40.8117L59.7376 41.1599L59.9087 41.5131L60.0744 41.8713L60.3153 42.4184L60.5499 42.9772L60.9369 43.9353L61.4975 45.3343L61.7542 45.955L62.026 46.5887L62.2173 47.0185L62.4179 47.4542L62.6289 47.8959C62.6649 47.97 62.7015 48.0444 62.7385 48.119L62.9669 48.5698C63.006 48.6454 63.0457 48.7213 63.0859 48.7974L63.3342 49.2574C63.3767 49.3346 63.4199 49.4121 63.4636 49.4898L63.7341 49.9591L64.0206 50.4348C64.2663 50.8338 64.5299 51.2395 64.8141 51.6519L65.1652 52.1502C66.731 54.3234 67.7747 55.6518 70.8958 58.2178C66.1797 66.0737 58.5937 71.3688 51.0641 73.6304C45.807 66.7624 38.0324 60.463 30.0681 57.7782C24.8387 56.4702 18.9952 56.2456 14.2568 56.6045L13.4557 56.6716C11.6131 56.8412 9.96312 57.0995 8.6157 57.4146C6.58453 57.89 4.56081 56.5916 4.09592 54.5158C3.64571 52.5053 4.82247 50.5022 6.74226 49.9464C5.46178 49.5749 4.414 48.5187 4.09592 47.0982C3.63103 45.0224 4.90093 42.9542 6.93236 42.4791C7.49321 42.3479 8.13165 42.2265 8.83693 42.1171L8.82662 42.0725C8.36172 39.9964 9.63163 37.9282 11.6631 37.4534C12.2601 37.3137 12.9456 37.1814 13.7068 37.0605C13.6458 35.2513 14.8448 33.5942 16.6357 33.1756L17.1863 33.053L17.596 32.9686L18.0386 32.8825L18.7614 32.7518L19.2809 32.6643L19.8291 32.5772L20.4048 32.4911L21.0069 32.4065L21.6343 32.3241L22.2856 32.2443L23.3051 32.1309L24.0114 32.0603L24.7376 31.9944L25.4825 31.9336L26.2451 31.8787L27.0241 31.8301L27.8183 31.7884L28.6266 31.7542C28.8983 31.7441 29.1721 31.7354 29.4479 31.7281L30.2808 31.7106C30.4205 31.7084 30.5607 31.7066 30.7013 31.7052L31.5497 31.7017C33.5399 31.7049 35.6021 31.79 37.6693 31.9894C37.9456 31.6278 38.1761 31.388 38.3503 31.2943L39.275 31.4456L40.3229 31.6324L41.2621 31.8109L42.3339 32.0268L43.2711 32.2263L44.0128 32.3917L44.523 32.5093L45.308 32.6969L45.8423 32.8293L46.3838 32.9676L47.206 33.1862L47.7586 33.3393L48.3132 33.4983L48.8681 33.6632L49.4219 33.8339C49.4945 32.7913 49.6406 31.7602 49.8606 30.7524C50.8513 26.2137 53.192 22.7641 56.4511 21.0388C58.6212 19.8901 61.2904 20.7564 62.4142 22.9737Z" fill="#FFC8E9"/>
<path fill-rule="evenodd" clip-rule="evenodd" d="M48.5945 48.335C48.5447 47.2346 42.9499 45.4861 38.4798 46.1762C34.0098 46.8663 30.6114 50.5483 30.6114 50.5483C30.6114 50.5483 37.2204 50.946 40.3845 50.7368C45.8053 50.2497 48.4345 49.4321 48.5945 48.335Z" fill="#FFB4DE"/>
<path fill-rule="evenodd" clip-rule="evenodd" d="M53.1366 48.2119C54.2814 48.8145 55.1769 49.6931 55.5322 50.5626C55.5872 50.698 55.5247 50.8536 55.3922 50.9104C55.3596 50.9243 55.3254 50.9309 55.2919 50.9309C55.19 50.9309 55.0936 50.8694 55.0516 50.7674C54.4677 49.3377 51.9702 47.5654 48.7993 47.9482C48.6586 47.9666 48.5271 47.8617 48.5104 47.7158C48.4931 47.5699 48.5953 47.4376 48.7378 47.4203C50.6803 47.1831 52.2023 47.7205 53.1366 48.2119ZM28.8293 48.5768C28.9713 48.5994 29.0686 48.7354 29.0462 48.8805C29.0238 49.0256 28.8905 49.125 28.749 49.1021C27.5033 48.9031 26.2856 48.7548 25.1017 48.6493L24.2203 48.5781C22.3248 48.4407 20.5229 48.4113 18.84 48.4562L18.0719 48.4821C17.8187 48.4924 17.5685 48.5043 17.3212 48.5178L16.5886 48.5625L15.8746 48.6157L15.1797 48.6764L14.5045 48.744L13.8496 48.8178L13.2155 48.8969L12.3047 49.0242V49.0242L11.7251 49.1137L11.1683 49.2059L10.6348 49.3003L10.1253 49.3961L9.64019 49.4925L8.95963 49.6366L8.33723 49.778L7.60111 49.958L6.97623 50.1228C6.95359 50.1289 6.93095 50.1318 6.90856 50.1318C6.79382 50.1318 6.68859 50.0534 6.65721 49.9346C6.62042 49.7926 6.70274 49.6467 6.84141 49.6088L7.44943 49.4477L8.11607 49.282L8.83976 49.1145L9.6189 48.9477L10.4519 48.7842L11.1861 48.6524V48.6524L12.1138 48.5018V48.5018L12.9247 48.3844L13.5975 48.2968L14.2913 48.2157L15.0054 48.1418L15.7395 48.076L16.1139 48.0463V48.0463L16.8771 47.994C20.3541 47.7804 24.4022 47.8692 28.8293 48.5768ZM22.7893 40.6361L23.6947 40.6707C23.9992 40.6844 24.3064 40.7004 24.6163 40.7187L25.5536 40.7805C27.4435 40.9184 29.4239 41.1423 31.4731 41.4699C31.6151 41.4925 31.7123 41.6284 31.6899 41.7736C31.6676 41.9184 31.5335 42.0189 31.3928 41.9952C28.6836 41.5622 26.0969 41.3116 23.6832 41.202L22.7863 41.1675C22.0458 41.1441 21.3229 41.1339 20.619 41.1357L19.7836 41.1436C18.9575 41.1571 18.1598 41.1871 17.3932 41.2316L16.637 41.2807L15.9021 41.3389L15.189 41.4057C14.3701 41.4885 13.5971 41.5879 12.8742 41.7004L12.1191 41.8258V41.8258L11.4035 41.9603L11.1286 42.0165V42.0165L10.5986 42.1324C10.2542 42.2112 9.92769 42.2931 9.61998 42.3772C9.59734 42.3833 9.5747 42.3862 9.55231 42.3862C9.43757 42.3862 9.33234 42.3078 9.30096 42.189C9.26417 42.047 9.34649 41.9011 9.48516 41.8632L9.96641 41.7373L10.4754 41.6155L10.7401 41.5562V41.5562L11.2896 41.4413L11.8653 41.3317L12.4667 41.2278C12.9783 41.1438 13.5161 41.0662 14.0783 40.9965L14.7646 40.9165L15.1164 40.8795V40.8795L15.8369 40.8117C15.9589 40.8012 16.0817 40.7909 16.2055 40.7811L16.9588 40.7265L17.3434 40.7027V40.7027L18.1281 40.6625L18.9331 40.6324L19.7577 40.613C20.7309 40.5968 21.7429 40.6033 22.7893 40.6361ZM28.1969 35.7769L29.1104 35.8181L30.04 35.873C32.0708 36.0069 34.21 36.24 36.4298 36.5949C36.5719 36.6175 36.6691 36.7535 36.6467 36.8986C36.6243 37.0437 36.4903 37.1442 36.3496 37.1202C33.6403 36.6872 31.0534 36.4365 28.6397 36.3269L27.7428 36.2923C26.7061 36.2595 25.7038 36.2527 24.7401 36.2685L23.9236 36.2874C23.3857 36.3036 22.8608 36.3268 22.3497 36.3564L21.5935 36.4055L21.2233 36.4335V36.4335L20.4992 36.4961L20.1455 36.5306V36.5306L19.4549 36.6055C18.889 36.6713 18.3471 36.7449 17.8307 36.8253L17.0756 36.9507V36.9507L16.36 37.0853L15.8168 37.1988L15.3002 37.3171C15.0486 37.3773 14.8073 37.4391 14.5765 37.5023C14.5539 37.5083 14.5312 37.5112 14.5088 37.5112C14.3941 37.5112 14.2889 37.4329 14.2575 37.314C14.2207 37.172 14.303 37.0261 14.4417 36.9883C14.831 36.8818 15.2499 36.7791 15.6967 36.6813L16.2462 36.5664C16.34 36.5477 16.4348 36.5292 16.5308 36.5109L17.1194 36.4041C17.9213 36.2655 18.7908 36.143 19.7213 36.0416L20.4306 35.9697L20.7937 35.9369V35.9369L21.5362 35.8778L21.9156 35.8516V35.8516L22.69 35.8065C24.3904 35.7193 26.2353 35.7019 28.1969 35.7769Z" fill="#003CE5"/>
<path fill-rule="evenodd" clip-rule="evenodd" d="M34.7315 50.4428C28.8765 51.5809 23.2076 47.7567 22.0695 41.902C20.9314 36.0467 24.755 30.3778 30.6101 29.2397C36.4651 28.1016 42.1342 31.9252 43.2723 37.7806C44.4104 43.6353 40.5866 49.3047 34.7315 50.4428Z" fill="#FFC74A"/>
<path fill-rule="evenodd" clip-rule="evenodd" d="M30.6101 29.2397C33.8655 28.6069 37.0619 29.5095 39.4554 31.4406C33.9994 35.957 28.6371 40.5837 23.3487 45.2947C22.7498 44.2712 22.3086 43.1321 22.0695 41.902C20.9314 36.0467 24.7548 30.3779 30.6101 29.2397Z" fill="#FFE39C"/>
<path fill-rule="evenodd" clip-rule="evenodd" d="M41.6156 45.8931C40.2891 47.8535 38.321 49.3787 35.9434 50.1318L37.1224 49.2572V49.2572C38.6198 48.136 40.1149 47.0106 41.6156 45.8931Z" fill="#FFA900"/>
<path fill-rule="evenodd" clip-rule="evenodd" d="M34.0369 47.7653C29.5856 48.6305 25.276 45.7237 24.4108 41.2727C23.5456 36.8214 26.4524 32.5118 30.9037 31.6466C35.3551 30.7813 39.6643 33.6882 40.5295 38.1395C41.3947 42.5906 38.4882 46.9 34.0369 47.7653Z" fill="#FF9700"/>
<path fill-rule="evenodd" clip-rule="evenodd" d="M34.4169 47.9276C30.0252 48.7813 25.7737 45.9133 24.9201 41.522C24.0665 37.1306 26.9341 32.8788 31.3257 32.0252C35.7171 31.1716 39.9687 34.0396 40.8223 38.4309C41.6758 42.8222 38.8082 47.0741 34.4169 47.9276Z" fill="#FFA900"/>
<path fill-rule="evenodd" clip-rule="evenodd" d="M32.6709 35.7075C32.9444 35.7075 33.1698 35.9134 33.2005 36.1786L33.2041 36.2408L33.2036 36.8216C33.3161 36.8438 33.4276 36.8732 33.537 36.9097L33.765 36.988L33.9335 37.0508C34.0958 37.1142 34.2506 37.1845 34.5005 37.3037C34.7663 37.4306 34.8789 37.749 34.752 38.0148C34.6251 38.2806 34.3068 38.3932 34.041 38.2663L33.8174 38.1611L33.643 38.0839C33.5087 38.0273 33.3901 37.9853 33.1989 37.9213C33.0392 37.868 32.8735 37.8408 32.7116 37.838L32.6708 37.8407V37.8407L32.638 37.8384C32.2206 37.8503 31.8399 38.0256 31.671 38.3346C31.5662 38.5267 31.5879 38.7782 31.7137 38.9244C31.8034 39.0285 31.9293 39.1117 32.1367 39.2051L32.34 39.2907L32.452 39.3358C32.5398 39.3711 32.6246 39.4023 32.7439 39.4433L32.9487 39.5124C33.5306 39.7066 33.7978 39.8158 34.1236 40.0278C35.3317 40.8107 34.7973 42.8003 33.2045 43.1327L33.2041 43.707C33.2041 44.0015 32.9653 44.2403 32.6708 44.2403C32.3973 44.2403 32.1719 44.0344 32.1411 43.7691L32.1375 43.7069L32.1374 43.1406C31.8411 43.1014 31.5627 43.0294 31.3042 42.9311C31.0562 42.8368 30.8754 42.7383 30.7667 42.6628C30.5248 42.4948 30.4649 42.1625 30.633 41.9206C30.7881 41.6973 31.0832 41.6291 31.3179 41.7521L31.4258 41.8177C31.4808 41.8484 31.5676 41.8902 31.6832 41.9341C31.9688 42.0427 32.2924 42.107 32.6371 42.1094L32.6709 42.1071L32.6995 42.1091C32.7917 42.1077 32.8853 42.1019 32.98 42.0913C33.6879 41.9681 33.9129 41.1622 33.5428 40.9223C33.3544 40.7998 33.1783 40.7202 32.837 40.601L32.3289 40.4283C32.2848 40.4128 32.2443 40.3982 32.2053 40.3838L31.8553 40.245L31.8182 40.2295C31.4144 40.0602 31.1399 39.8924 30.9054 39.6203C30.4843 39.1309 30.4212 38.3984 30.7348 37.8234C31.0308 37.2822 31.5518 36.9501 32.1371 36.8258L32.1375 36.2408C32.1375 35.9463 32.3763 35.7075 32.6709 35.7075Z" fill="#FFF5C5"/>
<path fill-rule="evenodd" clip-rule="evenodd" d="M24.8423 20.9439C27.457 15.5829 33.9666 13.378 39.3817 16.0192C39.9232 16.2833 40.1502 16.932 39.8888 17.4681C39.6273 18.0042 38.9763 18.2247 38.4348 17.9606C34.1027 15.8477 28.8951 17.6116 26.8033 21.9004C25.6304 24.3052 25.6662 27.0574 26.7872 29.3978L26.9042 29.1592C27.147 28.6614 27.7256 28.4357 28.2406 28.6175L28.3581 28.6667C28.8609 28.912 29.0926 29.4888 28.9138 29.9992L28.8652 30.1157L27.4449 33.0277C27.2021 33.5255 26.6234 33.7512 26.1084 33.5695L25.9909 33.5202L23.0494 32.0855C22.5079 31.8214 22.2809 31.1727 22.5424 30.6366C22.7851 30.1388 23.3638 29.9131 23.8788 30.0949L23.9963 30.1442L24.9747 30.6211C23.4265 27.6326 23.325 24.0548 24.8423 20.9439Z" fill="#005CFF"/>
<path fill-rule="evenodd" clip-rule="evenodd" d="M55.7297 22.2765C55.2976 21.7746 53.9722 22.4173 52.7694 23.712C51.5664 25.0067 50.9416 26.4631 51.3736 26.965C51.8056 27.4669 53.131 26.8242 54.3339 25.5295C55.5368 24.2348 56.1617 22.7785 55.7297 22.2765Z" fill="#FFB4DE"/>
<path fill-rule="evenodd" clip-rule="evenodd" d="M50.2053 27.1483C44.8443 29.763 38.3788 27.5363 35.7642 22.1756C33.1493 16.8144 35.3755 10.3491 40.7365 7.73435C46.0974 5.11964 52.563 7.34569 55.1778 12.7069C57.7924 18.0676 55.5662 24.5335 50.2053 27.1483Z" fill="#FFC74A"/>
<path fill-rule="evenodd" clip-rule="evenodd" d="M40.7365 7.73435C43.7173 6.28053 47.0383 6.32511 49.8501 7.57089C45.7489 13.3455 41.7668 19.2024 37.8778 25.1217C37.0345 24.288 36.3135 23.3019 35.7642 22.1756C33.1493 16.8144 35.3753 10.3492 40.7365 7.73435Z" fill="#FFE39C"/>
<path fill-rule="evenodd" clip-rule="evenodd" d="M55.6772 20.9719C54.9033 23.2088 53.397 25.1914 51.2953 26.5342L52.2078 25.3843V25.3843C53.364 23.9137 54.5169 22.4397 55.6772 20.9719Z" fill="#FFA900"/>
<path fill-rule="evenodd" clip-rule="evenodd" d="M48.8413 24.7417C44.7656 26.7296 39.8506 25.0372 37.8628 20.9617C35.875 16.886 37.5674 11.971 41.6431 9.98316C45.7188 7.99531 50.6335 9.6878 52.6214 13.7635C54.6091 17.839 52.917 22.7539 48.8413 24.7417Z" fill="#FF9700"/>
<path fill-rule="evenodd" clip-rule="evenodd" d="M49.2506 24.8002C45.2296 26.7614 40.3805 25.0915 38.4195 21.0707C36.4584 17.05 38.1279 12.2008 42.1489 10.2396C46.1697 8.27857 51.0187 9.94843 52.9798 13.9692C54.9409 17.99 53.2714 22.8391 49.2506 24.8002Z" fill="#FFA900"/>
<path fill-rule="evenodd" clip-rule="evenodd" d="M44.7367 14.5096L44.9647 14.5879L45.1332 14.6506C45.2955 14.714 45.4503 14.7842 45.7002 14.9034C45.966 15.0302 46.0786 15.3483 45.9517 15.6139C45.8248 15.8795 45.5065 15.992 45.2407 15.8652L45.0171 15.7601L44.8427 15.683C44.7084 15.6264 44.5898 15.5844 44.3986 15.5205C43.7991 15.3206 43.1144 15.488 42.8707 15.9336C42.7659 16.1255 42.7876 16.3768 42.9134 16.5229C43.0031 16.627 43.129 16.71 43.3364 16.8034L43.5397 16.889L43.6517 16.934C43.7395 16.9693 43.8243 17.0004 43.9436 17.0414L44.1484 17.1104C44.7303 17.3046 44.9975 17.4136 45.3233 17.6254C46.5496 18.4196 45.9805 20.4562 44.3316 20.742C43.6497 20.8197 43.0347 20.7283 42.5039 20.5267C42.256 20.4325 42.0751 20.3341 41.9664 20.2586C41.7245 20.0907 41.6646 19.7586 41.8327 19.5169C41.9878 19.2938 42.2829 19.2257 42.5176 19.3486L42.6255 19.4141C42.6805 19.4447 42.7673 19.4865 42.8829 19.5304C43.2615 19.6742 43.707 19.7404 44.1797 19.6875C44.8876 19.5644 45.1126 18.7591 44.7425 18.5194C44.5541 18.3969 44.378 18.3174 44.0367 18.1983L43.5286 18.0257C43.4845 18.0102 43.444 17.9957 43.4051 17.9812L43.055 17.8425L43.0179 17.8271C42.6141 17.6579 42.3396 17.4902 42.1051 17.2183C41.684 16.7293 41.6209 15.9973 41.9346 15.4227C42.3181 14.7216 43.0809 14.376 43.8705 14.3742C44.1616 14.3735 44.4556 14.4159 44.7367 14.5096ZM48.8241 14.3967C49.1062 14.4813 49.2663 14.7786 49.1817 15.0607L47.5818 20.3937C47.4972 20.6758 47.1999 20.8359 46.9178 20.7512C46.6356 20.6666 46.4756 20.3693 46.5602 20.0872L48.1601 14.7542C48.2447 14.4721 48.542 14.312 48.8241 14.3967Z" fill="#FFF5C5"/>
<path fill-rule="evenodd" clip-rule="evenodd" d="M43.1328 42.4742C42.9671 43.1455 42.7362 43.7912 42.4473 44.4041C42.5873 44.5141 42.7566 44.591 42.945 44.6208C48.8362 45.5539 54.3683 41.5346 55.3014 35.6434C55.8429 32.2244 54.7158 28.8348 52.3876 26.4337L53.4529 26.6028L53.5784 26.6154C54.1187 26.6378 54.6019 26.2521 54.6885 25.7051C54.7818 25.116 54.3799 24.5628 53.7908 24.4695L50.5907 23.9626L50.4652 23.9501C49.9249 23.9277 49.4417 24.3133 49.3551 24.8604L48.8482 28.0604L48.8357 28.186C48.8133 28.7262 49.1989 29.2094 49.746 29.2961L49.8715 29.3086C50.4118 29.331 50.895 28.9454 50.9816 28.3983L51.0246 28.1372C52.7601 30.0443 53.5865 32.6634 53.168 35.3055C52.4215 40.0185 47.9958 43.2339 43.2829 42.4875C43.2325 42.4795 43.1824 42.4751 43.1328 42.4742Z" fill="#005CFF"/>
</svg>
