<svg width="80" height="80" viewBox="0 0 80 80" fill="none" xmlns="http://www.w3.org/2000/svg">
<ellipse cx="40.0002" cy="40" rx="34.32" ry="35.2" fill="#DCEDFF"/>
<path fill-rule="evenodd" clip-rule="evenodd" d="M61.0736 22.9995C62.141 25.1599 61.3836 27.8056 59.3876 29.0022L59.2274 29.0937C57.5139 30.0239 56.1357 34.8927 57.6213 39.6577C57.6907 39.7673 57.7583 39.8776 57.8242 39.9888L58.0173 40.3246C58.0488 40.381 58.0798 40.4376 58.1106 40.4944L58.2909 40.8376L58.4639 41.1858L58.6307 41.5389L58.7923 41.8972L59.0271 42.4443L59.2559 43.0031L59.6332 43.9612L60.1798 45.3601L60.4301 45.9809L60.6951 46.6146L60.8817 47.0444L61.0772 47.4801L61.2829 47.9218C61.3181 47.9959 61.3537 48.0702 61.3898 48.1449L61.6125 48.5956C61.6506 48.6713 61.6893 48.7472 61.7285 48.8233L61.9705 49.2833C62.012 49.3605 62.0541 49.4379 62.0968 49.5156L62.3605 49.985L62.6398 50.4607C62.8794 50.8597 63.1364 51.2654 63.4135 51.6778L63.7559 52.1761C65.2824 54.3493 66.3001 55.6777 69.3432 58.2437C64.745 66.0996 57.3486 71.3947 50.0073 73.6563C44.8815 66.7883 37.3013 60.4889 29.536 57.8041C24.4374 56.4961 18.74 56.2715 14.1201 56.6304L13.339 56.6975C11.5425 56.8671 9.93369 57.1254 8.61995 57.4405C6.63955 57.9159 4.66642 56.6175 4.21315 54.5417C3.77419 52.5312 4.92154 50.528 6.79334 49.9723C5.54486 49.6008 4.52328 48.5445 4.21315 47.1241C3.75988 45.0483 4.99804 42.9801 6.97869 42.505C7.52551 42.3738 8.148 42.2523 8.83565 42.143L8.82559 42.0983C8.37232 40.0223 9.61048 37.9541 11.5911 37.4792C12.1732 37.3396 12.8416 37.2072 13.5838 37.0863C13.5243 35.2772 14.6933 33.62 16.4395 33.2014L16.9763 33.0789L17.3758 32.9944L17.8073 32.9084L18.5121 32.7776L19.0186 32.6901L19.553 32.603L20.1144 32.5169L20.7014 32.4324L21.3131 32.3499L21.9481 32.2702L22.9421 32.1568L23.6307 32.0862L24.3388 32.0202L25.0652 31.9595L25.8087 31.9045L26.5682 31.8559L27.3426 31.8143L28.1307 31.7801C28.3955 31.77 28.6625 31.7612 28.9313 31.7539L29.7435 31.7364C29.8797 31.7342 30.0164 31.7324 30.1535 31.7311L30.9806 31.7275C32.9211 31.7307 34.9318 31.8158 36.9473 32.0152C37.2167 31.6536 37.4413 31.4138 37.6113 31.3202L38.5128 31.4715L39.5345 31.6582L40.4502 31.8367L41.4952 32.0526L42.4091 32.2522L43.1322 32.4175L43.6296 32.5351L44.395 32.7227L44.916 32.8551L45.4439 32.9935L46.2456 33.2121L46.7844 33.3652L47.325 33.5242L47.8661 33.689L48.4061 33.8597C48.4769 32.8172 48.6193 31.786 48.8338 30.7782C49.7998 26.2396 52.0819 22.7899 55.2596 21.0646C57.3754 19.9159 59.9779 20.7822 61.0736 22.9995Z" fill="#FFC8E9"/>
<path fill-rule="evenodd" clip-rule="evenodd" d="M51.4494 48.7422C51.3621 47.3177 45.8217 44.8559 41.4683 45.5874C37.115 46.3188 33.9161 50.957 33.9161 50.957C33.9161 50.957 40.4022 51.7089 43.4935 51.5523C48.7851 51.1174 51.3312 50.1549 51.4494 48.7422Z" fill="#FFB4DE"/>
<path fill-rule="evenodd" clip-rule="evenodd" d="M52.0283 48.2378C53.1445 48.8404 54.0177 49.7191 54.3641 50.5886C54.4178 50.724 54.3568 50.8797 54.2276 50.9365C54.1958 50.9504 54.1624 50.957 54.1298 50.957C54.0305 50.957 53.9364 50.8955 53.8955 50.7935C53.3261 49.3637 50.8909 47.5913 47.7991 47.9741C47.6618 47.9925 47.5337 47.8876 47.5174 47.7416C47.5006 47.5957 47.6001 47.4635 47.7391 47.4461C49.6332 47.209 51.1172 47.7464 52.0283 48.2378ZM28.3285 48.6027C28.467 48.6253 28.5618 48.7613 28.54 48.9064C28.5182 49.0515 28.3882 49.1509 28.2503 49.128C27.0357 48.929 25.8484 48.7807 24.6942 48.6752L23.8348 48.604C21.9867 48.4666 20.2298 48.4372 18.589 48.4821L17.8401 48.508C17.5932 48.5183 17.3492 48.5302 17.1082 48.5437L16.3938 48.5884L15.6976 48.6416L15.0201 48.7023L14.3618 48.7699L13.7233 48.8437L13.1051 48.9228L12.217 49.0501V49.0501L11.6519 49.1396L11.109 49.2318L10.5889 49.3262L10.0921 49.422L9.61912 49.5184L8.95556 49.6625L8.34872 49.8039L7.63101 49.9839L7.02174 50.1487C6.99967 50.1548 6.97759 50.1577 6.95577 50.1577C6.8439 50.1577 6.7413 50.0793 6.7107 49.9605C6.67483 49.8185 6.7551 49.6726 6.8903 49.6347L7.48312 49.4736L8.1331 49.3079L8.83869 49.1404L9.59836 48.9736L10.4106 48.8101L11.1264 48.6783V48.6783L12.0309 48.5277V48.5277L12.8216 48.4103L13.4775 48.3227L14.1539 48.2416L14.8502 48.1677L15.566 48.1019L15.931 48.0722V48.0722L16.6751 48.0199C20.0652 47.8063 24.0121 47.8951 28.3285 48.6027ZM22.4394 40.6619L23.3221 40.6966C23.619 40.7103 23.9186 40.7263 24.2207 40.7446L25.1345 40.8064C26.9772 40.9442 28.9081 41.1681 30.906 41.4958C31.0445 41.5184 31.1393 41.6543 31.1175 41.7994C31.0957 41.9443 30.965 42.0447 30.8278 42.0211C28.1863 41.5881 25.6642 41.3375 23.3109 41.2279L22.4365 41.1934C21.7145 41.1699 21.0096 41.1598 20.3233 41.1616L19.5088 41.1695C18.7034 41.183 17.9256 41.213 17.1782 41.2574L16.4408 41.3066L15.7243 41.3648L15.0291 41.4316C14.2306 41.5144 13.477 41.6138 12.7722 41.7263L12.0359 41.8517V41.8517L11.3382 41.9862L11.0701 42.0423V42.0423L10.5534 42.1583C10.2176 42.2371 9.89927 42.3189 9.59925 42.4031C9.57717 42.4092 9.5551 42.4121 9.53328 42.4121C9.4214 42.4121 9.31881 42.3337 9.2882 42.2149C9.25233 42.0729 9.3326 41.927 9.46781 41.8891L9.93702 41.7632L10.4333 41.6414L10.6914 41.5821V41.5821L11.2271 41.4672L11.7885 41.3576L12.3748 41.2537C12.8737 41.1696 13.3979 41.0921 13.9461 41.0223L14.6153 40.9424L14.9583 40.9054V40.9054L15.6608 40.8376C15.7797 40.827 15.8995 40.8168 16.0201 40.807L16.7546 40.7524L17.1296 40.7286V40.7286L17.8947 40.6884L18.6796 40.6583L19.4835 40.6389C20.4324 40.6226 21.4191 40.6292 22.4394 40.6619ZM27.7115 35.8028L28.6023 35.844L29.5086 35.8989C31.4887 36.0328 33.5744 36.2659 35.7387 36.6208C35.8772 36.6434 35.972 36.7793 35.9502 36.9245C35.9283 37.0696 35.7977 37.17 35.6604 37.1461C33.0189 36.713 30.4967 36.4624 28.1433 36.3528L27.2688 36.3182C26.2581 36.2854 25.2808 36.2786 24.3411 36.2943L23.545 36.3133C23.0206 36.3294 22.5088 36.3527 22.0105 36.3823L21.2732 36.4314L20.9123 36.4594V36.4594L20.2063 36.522L19.8614 36.5565V36.5565L19.1881 36.6314C18.6363 36.6971 18.108 36.7708 17.6045 36.8512L16.8683 36.9766V36.9766L16.1706 37.1112L15.6409 37.2247L15.1372 37.343C14.892 37.4032 14.6567 37.465 14.4317 37.5282C14.4096 37.5342 14.3875 37.5371 14.3657 37.5371C14.2538 37.5371 14.1512 37.4587 14.1206 37.3399C14.0847 37.1979 14.165 37.052 14.3002 37.0141C14.6798 36.9077 15.0882 36.8049 15.5238 36.7071L16.0596 36.5923C16.151 36.5735 16.2435 36.555 16.3371 36.5368L16.911 36.4299C17.6928 36.2914 18.5406 36.1689 19.4479 36.0675L20.1394 35.9956L20.4934 35.9627V35.9627L21.2174 35.9036L21.5873 35.8775V35.8775L22.3424 35.8324C24.0003 35.7452 25.799 35.7278 27.7115 35.8028Z" fill="#003CE5"/>
<path fill-rule="evenodd" clip-rule="evenodd" d="M37.5723 51.179C46.8606 50.6881 53.944 41.7034 53.3935 31.1112C52.843 20.5189 44.8671 12.3301 35.5788 12.821C26.2905 13.3118 19.2071 22.2965 19.7576 32.8888C20.308 43.4811 28.2839 51.6699 37.5723 51.179Z" fill="#003CE5"/>
<path fill-rule="evenodd" clip-rule="evenodd" d="M35.6169 50.3066C43.872 49.8579 50.1518 41.336 49.6434 31.2725C49.1349 21.2091 42.0307 13.4148 33.7756 13.8635C25.5205 14.3123 19.2406 22.8342 19.749 32.8976C20.2575 42.9611 27.3618 50.7554 35.6169 50.3066Z" fill="#005CFF"/>
<path fill-rule="evenodd" clip-rule="evenodd" d="M34.8343 46.521C41.1966 46.1871 46.0248 39.6185 45.6183 31.8496C45.2118 24.0807 39.7245 18.0535 33.3621 18.3875C26.9998 18.7215 22.1716 25.2901 22.5781 33.0589C22.9846 40.8278 28.4719 46.855 34.8343 46.521Z" fill="#06A0FF"/>
<path fill-rule="evenodd" clip-rule="evenodd" d="M36.1327 45.8273C42.4559 45.1594 46.925 38.3379 46.1147 30.5909C45.3044 22.8439 39.5217 17.1052 33.1985 17.773C26.8753 18.4409 22.4062 25.2624 23.2165 33.0094C24.0267 40.7564 29.8095 46.4952 36.1327 45.8273Z" fill="white"/>
<path fill-rule="evenodd" clip-rule="evenodd" d="M33.9746 41.9253C34.4887 41.8699 34.9493 42.2525 35.0033 42.7797C35.0574 43.307 34.6844 43.7794 34.1703 43.8348C33.6562 43.8903 33.1956 43.5077 33.1416 42.9804C33.0875 42.4531 33.4605 41.9808 33.9746 41.9253ZM42.7106 32.3253C43.2247 32.2699 43.6853 32.6525 43.7393 33.1797C43.7934 33.707 43.4204 34.1794 42.9063 34.2348C42.3922 34.2902 41.9316 33.9077 41.8776 33.3804C41.8235 32.8531 42.1965 32.3808 42.7106 32.3253ZM24.9266 30.4053C25.4407 30.3499 25.9013 30.7325 25.9553 31.2597C26.0094 31.787 25.6364 32.2594 25.1223 32.3148C24.6082 32.3703 24.1476 31.9877 24.0936 31.4604C24.0395 30.9331 24.4125 30.4608 24.9266 30.4053ZM33.9746 19.2053C34.4887 19.1499 34.9493 19.5325 35.0033 20.0597C35.0574 20.587 34.6844 21.0594 34.1703 21.1148C33.6562 21.1703 33.1956 20.7877 33.1416 20.2604C33.0875 19.7331 33.4605 19.2608 33.9746 19.2053Z" fill="#005CFF"/>
<path fill-rule="evenodd" clip-rule="evenodd" d="M33.9708 22.8669C34.3829 22.8719 34.7165 23.2037 34.7403 23.6191L34.7416 23.6763L34.6608 30.7305C35.1813 30.9813 35.5775 31.4726 35.6995 32.0797L39.7064 32.4732C40.1353 32.5153 40.4496 32.9059 40.4086 33.3458C40.3693 33.7673 40.0179 34.081 39.6113 34.0694L39.5579 34.066L35.3401 33.6533C35.0384 34.0483 34.587 34.3223 34.062 34.3789C33.0338 34.4897 32.1126 33.7246 32.0045 32.6701C31.9178 31.8233 32.3816 31.0473 33.1 30.717L33.1817 23.6575C33.1868 23.2157 33.5401 22.8617 33.9708 22.8669Z" fill="#FF7800"/>
</svg>
