<svg width="80" height="80" viewBox="0 0 80 80" fill="none" xmlns="http://www.w3.org/2000/svg">
<g clip-path="url(#clip0_267_364)">
<path fill-rule="evenodd" clip-rule="evenodd" d="M4.7998 40C4.7998 59.4404 20.5593 75.2 39.9998 75.2C59.4403 75.2 75.1998 59.4404 75.1998 40C75.1998 20.5598 59.4403 4.79999 39.9998 4.79999C20.5593 4.79999 4.7998 20.5598 4.7998 40" fill="#DCEDFF"/>
<path fill-rule="evenodd" clip-rule="evenodd" d="M61.6141 22.9995C62.7088 25.1599 61.932 27.8056 59.8848 29.0022L59.7205 29.0937C57.9631 30.0239 56.5496 34.8927 58.0732 39.6577C60.8093 46.6696 62.9339 49.985 62.9339 49.985L63.2204 50.4607C63.4662 50.8597 63.7298 51.2654 64.014 51.6778L64.3651 52.1761C65.9308 54.3493 66.9745 55.6777 70.0957 58.2437C65.3795 66.0996 57.7935 71.3947 50.264 73.6563C45.0068 66.7883 37.2322 60.4889 29.2678 57.8041C24.0385 56.4961 18.1949 56.2715 13.4566 56.6304L12.6554 56.6975C10.8129 56.8671 9.16284 57.1254 7.81542 57.4405C5.78424 57.9159 3.76052 56.6175 3.29563 54.5417C2.84541 52.5312 4.02218 50.528 5.94198 49.9723C4.66149 49.6008 3.6137 48.5445 3.29563 47.1241C2.83073 45.0483 4.10064 42.9801 6.13208 42.505C6.69292 42.3738 7.33137 42.2523 8.03665 42.143L8.02634 42.0983C7.56144 40.0223 8.83135 37.9541 10.8628 37.4792C11.4598 37.3396 12.1453 37.2072 12.9066 37.0863C12.8455 35.2772 14.0445 33.62 15.8354 33.2014L16.386 33.0789L16.7958 32.9944L17.2384 32.9084L17.9612 32.7776L18.4807 32.6901L19.0289 32.603L19.6046 32.5169L20.2067 32.4324L20.834 32.3499L21.4853 32.2702L22.5048 32.1568L23.2111 32.0862L23.9373 32.0202L24.6823 31.9595L25.4449 31.9045L26.2239 31.8559L27.0181 31.8143L27.8264 31.7801C28.0981 31.77 28.3719 31.7612 28.6476 31.7539L29.4806 31.7364C29.6203 31.7342 29.7605 31.7324 29.9011 31.7311L30.7494 31.7275C39.9999 31.7539 48.6217 33.8597 48.6217 33.8597C48.6943 32.8172 48.8404 31.786 49.0604 30.7782C50.0511 26.2396 52.3918 22.7899 55.651 21.0646C57.8211 19.9159 60.4903 20.7822 61.6141 22.9995Z" fill="#FFC8E9"/>
<path fill-rule="evenodd" clip-rule="evenodd" d="M52.3365 48.2378C53.4813 48.8404 54.3769 49.7191 54.7322 50.5886C54.7873 50.724 54.7247 50.8797 54.5922 50.9365C54.5596 50.9504 54.5253 50.957 54.4919 50.957C54.39 50.957 54.2935 50.8955 54.2516 50.7935C53.6676 49.3637 51.17 47.5913 47.9988 47.9741C47.8581 47.9925 47.7266 47.8876 47.7099 47.7416C47.6927 47.5957 47.7948 47.4635 47.9373 47.4461C49.88 47.209 51.402 47.7464 52.3365 48.2378ZM28.0291 48.6027C28.1711 48.6253 28.2683 48.7613 28.2459 48.9064C28.2236 49.0515 28.0903 49.1509 27.9488 49.128C26.7031 48.929 25.4853 48.7807 24.3015 48.6752L23.4201 48.604C21.5246 48.4666 19.7226 48.4372 18.0398 48.4821L17.2716 48.508C17.0185 48.5183 16.7682 48.5302 16.521 48.5437L15.7883 48.5884V48.5884L15.0743 48.6416V48.6416L14.3794 48.7023V48.7023L13.7042 48.7699V48.7699L13.0493 48.8437V48.8437L12.4152 48.9228V48.9228L11.8025 49.0067C11.7022 49.021 11.6028 49.0355 11.5044 49.0501L10.9248 49.1396V49.1396L10.368 49.2318V49.2318L9.83456 49.3262V49.3262L9.325 49.422V49.422L8.83991 49.5184V49.5184L8.15934 49.6625V49.6625L7.53694 49.8039V49.8039L6.80082 49.9839V49.9839L6.17593 50.1487V50.1487C6.15329 50.1548 6.13065 50.1577 6.10827 50.1577C5.99353 50.1577 5.8883 50.0793 5.85691 49.9605C5.82012 49.8185 5.90245 49.6726 6.04112 49.6347L6.64914 49.4736V49.4736L7.31578 49.3079V49.3079L8.03947 49.1404V49.1404L8.81861 48.9736V48.9736L9.65164 48.8101V48.8101L10.2361 48.7043C10.3355 48.6869 10.4358 48.6697 10.537 48.6526L11.1555 48.5521C11.2604 48.5358 11.3663 48.5196 11.473 48.5036L12.1245 48.4103V48.4103L12.7973 48.3227V48.3227L13.491 48.2416V48.2416L14.2051 48.1677V48.1677L14.9393 48.1019C15.0632 48.0916 15.188 48.0817 15.3137 48.0722L16.0768 48.0199C19.5539 47.8063 23.6019 47.8951 28.0291 48.6027ZM30.6727 41.4958C30.8147 41.5184 30.9119 41.6543 30.8895 41.7994C30.8672 41.9443 30.7331 42.0447 30.5924 42.0211C27.8832 41.5881 25.2964 41.3375 22.8828 41.2279L21.9859 41.1934C21.2454 41.1699 20.5225 41.1598 19.8186 41.1616L18.9832 41.1695C18.1571 41.183 17.3594 41.213 16.5928 41.2574L15.8366 41.3066V41.3066L15.1016 41.3648V41.3648L14.3886 41.4316C13.5697 41.5144 12.7967 41.6138 12.0738 41.7263L11.4666 41.8259C11.3674 41.843 11.2694 41.8603 11.1723 41.8779L10.6031 41.9862C10.5103 42.0047 10.4187 42.0234 10.3281 42.0423L9.79814 42.1583C9.45371 42.2371 9.12725 42.3189 8.81953 42.4031C8.79689 42.4092 8.77425 42.4121 8.75187 42.4121C8.63712 42.4121 8.5319 42.3337 8.50051 42.2149C8.46372 42.0729 8.54605 41.927 8.68472 41.8891L9.16596 41.7632V41.7632L9.67496 41.6414C9.76207 41.6214 9.85031 41.6017 9.93968 41.5821L10.4892 41.4672V41.4672L11.0649 41.3576V41.3576L11.6663 41.2537C12.1779 41.1696 12.7156 41.0921 13.2779 41.0223L13.9642 40.9424C14.0805 40.9297 14.1978 40.9174 14.316 40.9054L15.0365 40.8376C15.1585 40.827 15.2813 40.8168 15.4051 40.807L16.1584 40.7524C16.2857 40.7441 16.4139 40.7361 16.543 40.7286L17.3277 40.6884V40.6884L18.1327 40.6583V40.6583L18.9572 40.6389C19.9304 40.6226 20.9424 40.6292 21.9889 40.6619L22.8942 40.6966C23.1988 40.7103 23.506 40.7263 23.8159 40.7446L24.7532 40.8064C26.6431 40.9442 28.6235 41.1681 30.6727 41.4958ZM35.6292 36.6208C35.7712 36.6434 35.8685 36.7793 35.8461 36.9245C35.8237 37.0696 35.6897 37.17 35.549 37.1461C32.8396 36.713 30.2528 36.4624 27.8391 36.3528L26.9422 36.3182C25.9055 36.2854 24.9031 36.2786 23.9394 36.2943L23.1229 36.3133C22.585 36.3294 22.0601 36.3527 21.549 36.3823L20.7928 36.4314C20.6685 36.4404 20.5451 36.4497 20.4226 36.4594L19.6986 36.522C19.5797 36.5331 19.4618 36.5446 19.3448 36.5565L18.6543 36.6314C18.0883 36.6971 17.5464 36.7708 17.0301 36.8512L16.4229 36.9508C16.3237 36.9679 16.2256 36.9852 16.1286 37.0028L15.5594 37.1112V37.1112L15.0161 37.2247V37.2247L14.4995 37.343C14.248 37.4032 14.0066 37.465 13.7758 37.5282C13.7532 37.5342 13.7306 37.5371 13.7082 37.5371C13.5934 37.5371 13.4882 37.4587 13.4568 37.3399C13.42 37.1979 13.5024 37.052 13.641 37.0141C14.0303 36.9077 14.4492 36.8049 14.896 36.7071L15.4455 36.5923C15.5393 36.5735 15.6342 36.555 15.7301 36.5368L16.3188 36.4299C17.1207 36.2914 17.9901 36.1689 18.9207 36.0675L19.63 35.9956C19.7501 35.9843 19.8711 35.9733 19.993 35.9627L20.7356 35.9036C20.8612 35.8945 20.9876 35.8858 21.1149 35.8775L21.8894 35.8324C23.5898 35.7452 25.4346 35.7278 27.3962 35.8028L28.3098 35.844V35.844L29.2393 35.8989C31.2702 36.0328 33.4094 36.2659 35.6292 36.6208Z" fill="#003CE5"/>
<path fill-rule="evenodd" clip-rule="evenodd" d="M47.4664 44.5805C47.3768 43.156 43.9723 42.5065 39.5073 43.2379C35.0423 43.9694 31.9088 45.5764 31.7334 46.6922C31.5576 47.8081 36.2369 47.1477 39.4074 46.9911C44.8346 46.5562 47.3451 45.9932 47.4664 44.5805Z" fill="#FFB4DE"/>
<path fill-rule="evenodd" clip-rule="evenodd" d="M31.5259 12.0272L48.8526 14.9135L52.0002 16.4599L51.9558 17.2439L51.9454 18.34L51.93 19.2721L51.8964 20.6454C51.8964 20.6454 51.788 24.9603 51.5373 28.8195C50.8968 38.678 39.857 45.731 32.293 47.1879C31.9279 46.9802 33.9509 46.3498 33.9509 46.3498L33.9221 46.3289C29.9184 43.394 26.1648 37.536 25.3959 34.1807C25.0616 32.7224 24.877 30.4777 24.7832 28.0287L24.7484 26.9683C24.7385 26.6118 24.7303 26.2529 24.7237 25.8931L24.708 24.8133L24.7004 23.739L24.6998 22.6805L24.7097 21.1445L24.7296 19.7011L24.7561 18.3849L24.7855 17.2301L22.9663 17.2306C22.9663 17.2306 27.0627 16.1316 28.9792 15.7597C29.9945 15.5626 30.9921 14.9531 31.8503 14.2575L31.5259 12.0272Z" fill="#FFA900"/>
<path fill-rule="evenodd" clip-rule="evenodd" d="M32.1819 47.1971C27.7032 44.7397 23.1566 37.9124 22.3041 34.1795C21.156 29.1768 20.5435 17.4807 20.5435 17.4807C20.5435 17.4807 31.2357 11.649 31.5157 11.6966C36.9684 12.6237 48.8523 14.9136 48.8523 14.9136C48.8523 14.9136 49.7561 19.5958 48.7418 29.1124C47.7275 38.6289 32.5161 47.3843 32.1819 47.1971Z" fill="#FFC74A"/>
<path fill-rule="evenodd" clip-rule="evenodd" d="M19.984 33.0073C18.3868 26.7426 19.5462 15.3453 19.5462 15.3453L31.516 11.6966C30.0539 24.2323 30.5153 38.8051 32.1821 47.1972C27.7033 44.7398 21.5175 39.0222 19.984 33.0073Z" fill="#FFE39C"/>
<path fill-rule="evenodd" clip-rule="evenodd" d="M28.2354 34.2007L29.3962 26.5247C28.5815 26.2267 28 25.4479 28 24.5277C28 23.3527 28.9562 22.4324 30.1357 22.4C30.3461 22.3942 30.5655 22.3942 30.7231 22.4298C31.6693 22.6493 32.2711 23.5195 32.2711 24.5277C32.2711 25.3953 31.7521 26.142 31.0061 26.4721L32.7641 34.2462L32.8 34.4L28.2354 34.2007Z" fill="#FFA900"/>
<path fill-rule="evenodd" clip-rule="evenodd" d="M29.2548 34.2462L30.2603 26.4878C29.408 26.1884 28.7998 25.406 28.7998 24.4815C28.7998 23.4685 29.3705 22.4 30.5215 22.4C31.7372 22.4948 32.2464 23.4685 32.2464 24.4815C32.2464 25.3531 31.7036 26.1033 30.9236 26.4349L32.7998 34.4L29.2548 34.2462Z" fill="#470D00"/>
</g>
<defs>
<clipPath id="clip0_267_364">
<rect width="80" height="80" fill="white"/>
</clipPath>
</defs>
</svg>
