<svg width="52" height="52" viewBox="0 0 52 52" fill="none" xmlns="http://www.w3.org/2000/svg">
<path fill-rule="evenodd" clip-rule="evenodd" d="M45.4827 38.0003C45.2885 38.3154 45.0861 38.6257 44.8776 38.9296C44.6061 39.3263 44.3214 39.7137 44.0245 40.092C43.3716 40.9268 42.6608 41.716 41.9002 42.4511C39.4475 44.8226 36.467 46.6499 33.1519 47.74C32.3333 48.0085 31.4934 48.2333 30.6361 48.4091C29.1393 48.7183 27.5885 48.88 26.0001 48.88C23.222 48.88 20.5587 48.3848 18.0948 47.4776C13.2493 45.6931 9.17366 42.3159 6.50534 37.9809C4.35869 34.4961 3.12012 30.3929 3.12012 26C3.12012 13.363 13.3643 3.12 26.0001 3.12C36.7181 3.12 45.7145 10.4883 48.1988 20.4376C48.27 20.7213 48.3361 21.0081 48.3961 21.2959C48.7133 22.8141 48.8801 24.3872 48.8801 26C48.8801 30.401 47.6375 34.5123 45.4827 38.0003Z" fill="#8B83FF"/>
<path fill-rule="evenodd" clip-rule="evenodd" d="M25.5382 15.4824C30.0798 17.0643 32.0312 19.9138 33.1184 22.7363L33.2357 23.0497L33.3464 23.3625C33.3644 23.4146 33.3821 23.4666 33.3995 23.5186L33.5503 23.9847L33.6444 24.2933L33.7774 24.752L33.9021 25.2044L34.0585 25.7955L34.3168 26.7879L34.4262 27.1934L34.5 27.4562L34.5751 27.7124L34.652 27.9616L34.7313 28.2036C34.7448 28.2433 34.7583 28.2827 34.772 28.3217L34.8558 28.5519C34.8843 28.6273 34.9135 28.7013 34.9433 28.7738L35.035 28.987C35.0506 29.0218 35.0665 29.0562 35.0826 29.0902C35.448 29.8642 35.9064 30.6332 36.3966 31.3596L36.6248 31.6916L36.8562 32.0168L37.0895 32.3342C37.1284 32.3865 37.1674 32.4383 37.2064 32.4898L37.4398 32.7941C37.4787 32.8441 37.5174 32.8936 37.5561 32.9427L37.7868 33.232L38.014 33.5103L38.2364 33.7767L38.4525 34.0305L38.6612 34.2708L38.9571 34.604L39.2285 34.9023L39.6143 35.3139L39.9417 35.6509L40.091 35.7997L31.4916 44.4935L31.2548 44.3109L30.9106 44.0364L30.4411 43.649L29.9694 43.2464L29.5483 42.8757L29.2112 42.571L28.8587 42.2448L28.4936 41.8981L28.1185 41.532L27.8642 41.2777L27.6075 41.0156L27.3491 40.7461L27.0898 40.4694L26.8304 40.1859L26.5718 39.8959L26.3146 39.5997C26.2719 39.5499 26.2293 39.4998 26.1868 39.4495L25.9334 39.1447C25.8915 39.0934 25.8496 39.042 25.808 38.9903L25.5601 38.6776L25.3168 38.3601C24.3141 37.0276 23.4536 35.5772 22.9928 34.1157L22.9395 33.9403C22.298 31.7507 21.0613 30.3881 19.6064 29.1648L19.2914 28.9045C18.9574 29.2052 18.6338 29.5128 18.3239 29.8204L18.0899 30.0553L17.8777 30.2737L17.5999 30.5693C16.9181 31.3249 15.7528 31.3846 14.9973 30.7028C14.3636 30.131 14.2194 29.2191 14.5916 28.4941L14.039 29.1177C13.376 29.8898 12.2126 29.9783 11.4405 29.3153C10.6683 28.6524 10.5798 27.489 11.2428 26.7168L11.5092 26.4123L11.5763 26.3378C10.9068 26.7795 10.0003 26.7453 9.3615 26.1969C8.61428 25.5553 8.5073 24.445 9.10204 23.6743L9.18776 23.5706L9.43027 23.2938L9.83197 22.845L10.1296 22.5187C10.8656 21.7178 11.6406 20.9165 12.4223 20.1645C12.5908 20.0024 12.7578 19.8444 12.9233 19.6905C12.6501 19.83 12.3883 19.9817 12.1369 20.1451C11.6591 20.4556 11.2579 20.785 10.9334 21.1082C10.8527 21.1886 10.7827 21.2628 10.7233 21.3294L10.6261 21.4422L10.566 21.5195C9.94837 22.272 8.84243 22.4169 8.04955 21.8326C7.23024 21.2289 7.05545 20.0753 7.65915 19.256L7.75036 19.1374C7.76736 19.1161 7.78525 19.0941 7.80405 19.0713L7.96201 18.8875L8.15416 18.6792C8.20999 18.6207 8.26951 18.5598 8.33273 18.4969C8.83148 18.0002 9.42887 17.5097 10.1285 17.0549C12.1612 15.7338 14.6527 14.9622 17.5832 15.0102C18.2759 15.0216 18.873 15.4136 19.1784 15.9838C20.8636 14.9684 23.0085 14.6013 25.5382 15.4824Z" fill="#FFC8E9"/>
<path fill-rule="evenodd" clip-rule="evenodd" d="M37.5698 32.4398L28.2788 41.989L30.8303 44.9185L40.0912 35.2796L37.5698 32.4398Z" fill="#005CFF"/>
<path fill-rule="evenodd" clip-rule="evenodd" d="M12.1143 20.4172L12.8302 19.6911L14.3735 21.5555L16.4379 24.0731L17.5658 25.4654L18.3676 26.4683L18.9595 27.2219L19.2116 27.5493L19.3608 27.7461L19.553 28.0054L19.704 28.2175L19.7797 28.3304C19.8557 28.448 19.8882 28.5157 19.8685 28.5233C19.839 28.5346 19.7962 28.5594 19.7438 28.594L19.6276 28.6754C19.6065 28.6908 19.5847 28.7071 19.5621 28.724L19.4205 28.8332L19.1942 29.0149L18.836 29.3134L18.5455 29.5627L11.7445 20.8216C11.7447 20.8179 11.7515 20.8079 11.7639 20.7925L11.854 20.6908L12.1143 20.4172ZM9.28467 17.6559L9.85828 17.1866L10.5176 17.713L11.0429 18.1443L11.4165 18.4593L11.782 18.7771L12.0371 19.0073L12.1926 19.153L12.3332 19.2901C12.3772 19.3342 12.4183 19.3765 12.4559 19.4166L12.558 19.5304C12.6941 19.6906 12.7507 19.8009 12.6841 19.8301C12.5803 19.8756 12.4588 19.9438 12.3337 20.0215L12.1829 20.1182L11.9626 20.269L11.7658 20.411L11.4979 20.6141L9.28467 17.6559Z" fill="#FF9FD1"/>
<path fill-rule="evenodd" clip-rule="evenodd" d="M5.99609 12.7395L20.6181 29.8803L29.4987 22.4585L15.0174 5.04364L5.99609 12.7395Z" fill="#00BBC4"/>
<path fill-rule="evenodd" clip-rule="evenodd" d="M8.26074 12.9191L14.8223 7.32166L27.2386 22.2535L20.808 27.6277L8.26074 12.9191Z" fill="#6CD8E3"/>
<path fill-rule="evenodd" clip-rule="evenodd" d="M9.68494 9.59399L8.94092 10.2266L16.0952 23.3491L16.3718 22.7588L9.68494 9.59399Z" fill="black" fill-opacity="0.14902"/>
<path fill-rule="evenodd" clip-rule="evenodd" d="M8.59277 7.27106L18.175 27.662L28.6988 22.8459L19.3248 2.22766L8.59277 7.27106Z" fill="#00BBC4"/>
<path fill-rule="evenodd" clip-rule="evenodd" d="M10.73 8.04169L18.5357 4.37354L26.5732 22.052L18.9526 25.5394L10.73 8.04169Z" fill="#6CD8E3"/>
<rect x="15.0083" y="7.39856" width="1.04" height="3.64" rx="0.52" transform="rotate(-22 15.0083 7.39856)" fill="#00BBC4"/>
<path fill-rule="evenodd" clip-rule="evenodd" d="M21.913 19.0242C22.1568 19.1478 22.369 19.3697 22.5501 19.69L23.0718 19.454C23.1078 19.4378 23.1327 19.4447 23.1464 19.4751L23.1814 19.5525C23.1951 19.5827 23.184 19.6061 23.148 19.6224L22.6397 19.8522L22.6974 19.9796L23.2056 19.7498C23.2416 19.7335 23.2665 19.7405 23.2802 19.7709L23.3151 19.8482C23.3289 19.8785 23.3178 19.9019 23.2818 19.9182L22.76 20.1541C22.8674 20.4636 22.8958 20.7341 22.8451 20.9652C22.7943 21.1966 22.6715 21.3563 22.4766 21.4443C22.3297 21.5109 22.1877 21.512 22.0503 21.448C21.913 21.384 21.8065 21.2686 21.7311 21.1018C21.6488 20.9198 21.6244 20.75 21.6579 20.5922C21.6914 20.4346 21.7756 20.3253 21.9104 20.2642C22.0184 20.2155 22.1221 20.2132 22.2218 20.2577C22.3213 20.3023 22.4028 20.3869 22.4665 20.5115C22.4928 20.5217 22.5163 20.5219 22.5374 20.5125C22.5583 20.5029 22.5707 20.4864 22.5744 20.4628C22.5782 20.4392 22.5733 20.4121 22.5596 20.3818C22.4978 20.2453 22.3974 20.1509 22.2582 20.0988C22.119 20.0466 21.9804 20.0517 21.8426 20.1141C21.6865 20.1846 21.5832 20.3035 21.5324 20.4708C21.4889 20.6143 21.4869 20.7878 21.5265 20.9916L21.5498 21.096C21.6686 21.5904 21.5511 21.9177 21.1973 22.0778C20.9483 22.1903 20.7098 22.194 20.4818 22.0888C20.2536 21.9837 20.0475 21.7754 19.8633 21.4641L19.3371 21.7021C19.3011 21.7184 19.2762 21.7113 19.2625 21.681L19.2276 21.6036C19.2138 21.5732 19.2249 21.55 19.2609 21.5337L19.7692 21.3039L19.7115 21.1765L19.2033 21.4063C19.1673 21.4226 19.1424 21.4154 19.1287 21.3852L19.0938 21.3078C19.0801 21.2775 19.0911 21.2542 19.1271 21.2379L19.6353 21.008C19.4843 20.6341 19.4273 20.3202 19.464 20.0661C19.5008 19.8119 19.6271 19.636 19.8431 19.5383C19.9899 19.4719 20.1328 19.4703 20.2716 19.5336C20.4104 19.597 20.5182 19.7135 20.5951 19.8834C20.6774 20.0655 20.7029 20.2357 20.6716 20.3943C20.6403 20.5526 20.5573 20.6625 20.4222 20.7235C20.3114 20.7737 20.2056 20.7756 20.1055 20.7296C20.0052 20.6836 19.9239 20.596 19.862 20.467C19.8359 20.4569 19.8122 20.4567 19.7913 20.4662C19.7703 20.4757 19.7582 20.4929 19.7552 20.5181C19.752 20.5432 19.7573 20.571 19.7711 20.6014C19.8328 20.7379 19.9333 20.8322 20.0725 20.8843C20.2116 20.9365 20.3502 20.9314 20.4881 20.8691C20.6321 20.804 20.7257 20.6995 20.769 20.5557C20.8123 20.4118 20.8166 20.1815 20.7816 19.8648C20.7611 19.6439 20.784 19.4626 20.8501 19.3213C20.9161 19.18 21.0272 19.074 21.1832 19.0035C21.426 18.8937 21.6693 18.9005 21.913 19.0242ZM21.189 13.6224C21.7273 15.09 20.9713 16.7219 19.5036 17.2602C19.1827 17.3779 18.8538 17.4337 18.5303 17.4337C17.3745 17.4337 16.2864 16.7215 15.8659 15.5749C15.3276 14.1072 16.0837 12.4753 17.5513 11.937C19.0191 11.3988 20.6509 12.1548 21.189 13.6224Z" fill="#00BBC4"/>
<path fill-rule="evenodd" clip-rule="evenodd" d="M19.5848 5.74908L14.6709 6.50507L17.2224 22.1919L18.6429 21.6002L19.5848 5.74908Z" fill="black" fill-opacity="0.14902"/>
<path fill-rule="evenodd" clip-rule="evenodd" d="M15.8081 4.89874L17.7828 27.3422L29.3214 26.4445L27.6205 3.85925L15.8081 4.89874Z" fill="#00BBC4"/>
<path fill-rule="evenodd" clip-rule="evenodd" d="M17.5493 6.35822L26.1408 5.60223L27.5993 24.9671L19.2438 25.6172L17.5493 6.35822Z" fill="#6CD8E3"/>
<path fill-rule="evenodd" clip-rule="evenodd" d="M22.6118 12.3641C24.175 12.3641 25.4468 13.6359 25.4468 15.1991C25.4468 16.7623 24.175 18.0341 22.6118 18.0341C21.0486 18.0341 19.7769 16.7623 19.7769 15.1991C19.7769 13.6359 21.0486 12.3641 22.6118 12.3641Z" fill="#00BBC4"/>
<path fill-rule="evenodd" clip-rule="evenodd" d="M16.0133 22.5239C16.8498 21.5703 18.2839 21.4515 19.2643 22.2363L19.3772 22.3322L19.6766 22.5995L19.9939 22.8871L20.3355 23.2008C20.3943 23.2552 20.454 23.3106 20.5146 23.3669C21.3807 24.1729 22.2474 25.0163 23.0612 25.8604C23.5039 26.3196 23.9198 26.7677 24.3044 27.202C25.3862 28.4235 26.1941 29.5001 26.6916 30.4618C27.291 31.6207 26.8374 33.0462 25.6785 33.6456C24.5501 34.2292 23.1691 33.8146 22.5438 32.7226L22.4948 32.6326C22.3832 32.4168 22.2195 32.1585 22.0093 31.8652L21.843 31.6389L21.6598 31.4001L21.4601 31.1495L21.2444 30.888C21.2072 30.8435 21.1693 30.7986 21.1307 30.7533L20.8921 30.4765C20.8511 30.4296 20.8095 30.3823 20.7672 30.3346C20.4293 29.953 20.0582 29.5533 19.6597 29.1399C18.9111 28.3634 18.1038 27.5777 17.2959 26.826L16.9666 26.5215L16.5157 26.1114L16.2314 25.8578C15.2505 24.9974 15.1528 23.5048 16.0133 22.5239Z" fill="#FFC8E9"/>
<path fill-rule="evenodd" clip-rule="evenodd" d="M21.0902 23.6107L23.2898 25.8252L23.9488 26.4788L24.1213 26.6431L24.3829 26.8856C25.0608 27.5019 25.585 27.881 26.081 28.1029C26.1525 28.1348 26.1845 28.2187 26.1526 28.2901C26.1206 28.3616 26.0368 28.3936 25.9653 28.3617C25.4381 28.1259 24.8937 27.7328 24.1972 27.0999L23.9287 26.8512L23.6661 26.5992L23.3786 26.3147L20.8907 23.8121C20.8351 23.7571 20.8347 23.6673 20.8897 23.6117C20.9448 23.5561 21.0346 23.5556 21.0902 23.6107ZM16.2598 25.8783L16.4615 26.0618L16.0487 26.5615C15.806 26.8634 15.5858 27.1553 15.4022 27.4224C15.3578 27.4869 15.2696 27.5032 15.2051 27.4589C15.1406 27.4145 15.1242 27.3263 15.1686 27.2617L15.2512 27.1433L15.429 26.8983L15.6219 26.6444C15.6885 26.5585 15.7572 26.4715 15.8278 26.3836L16.0448 26.1179L16.2598 25.8783ZM14.4913 22.6951L14.6711 22.9L14.2362 23.3192L13.8747 23.701L13.6385 23.9573L13.2958 24.3398L13.078 24.5905L12.8212 24.8958L12.585 25.1885C12.4352 25.3787 12.3016 25.558 12.1892 25.7214C12.1449 25.7859 12.0566 25.8022 11.9921 25.7579C11.9276 25.7135 11.9113 25.6253 11.9556 25.5608C12.0476 25.427 12.1532 25.2832 12.2698 25.1317L12.4528 24.8992L12.6506 24.6573L12.8611 24.4079L13.0825 24.1529L13.1966 24.0239L13.5502 23.6339L13.7927 23.3737L14.0384 23.1157L14.4913 22.6951Z" fill="#002FC4"/>
<path fill-rule="evenodd" clip-rule="evenodd" d="M31.87 41.9891C31.87 42.511 31.4469 42.934 30.925 42.934C30.4031 42.934 29.98 42.511 29.98 41.9891C29.98 41.4672 30.4031 41.0441 30.925 41.0441C31.4469 41.0441 31.87 41.4672 31.87 41.9891Z" fill="#FFE39C"/>
<path fill-rule="evenodd" clip-rule="evenodd" d="M44.6274 39.2621C42.5451 42.0854 39.77 45.3007 33.3016 47.7089C32.3689 46.71 30.8301 44.919 30.8301 44.919L40.091 35.2801L44.6274 39.2621Z" fill="#80DAFC"/>
<rect x="21.4902" y="7.47113" width="1.04" height="3.64" rx="0.52" transform="rotate(-4 21.4902 7.47113)" fill="#00BBC4"/>
<rect x="22.4424" y="19.7435" width="1.04" height="3.64" rx="0.52" transform="rotate(-4 22.4424 19.7435)" fill="#00BBC4"/>
</svg>
