<svg width="52" height="52" viewBox="0 0 52 52" fill="none" xmlns="http://www.w3.org/2000/svg">
<mask id="mask0_515_4693" style="mask-type:luminance" maskUnits="userSpaceOnUse" x="0" y="0" width="52" height="52">
<path d="M48.3874 39.2295C45.3128 44.4194 40.4885 48.4469 34.7235 50.4987C31.996 51.4701 29.0591 52 25.999 52C11.6388 52 0 40.3591 0 26.001C0 11.643 11.6388 0 25.999 0C40.3591 0 52 11.6409 52 26.001C52 30.8336 50.6835 35.354 48.3894 39.2295H48.3874Z" fill="white"/>
</mask>
<g mask="url(#mask0_515_4693)">
<path fill-rule="evenodd" clip-rule="evenodd" d="M48.3874 39.2295C45.3128 44.4194 40.4885 48.4469 34.7235 50.4987C31.996 51.4701 29.0591 52 25.999 52C11.6388 52 0 40.3591 0 26.001C0 11.643 11.6388 0 25.999 0C40.3591 0 52 11.6409 52 26.001C52 30.8336 50.6835 35.354 48.3894 39.2295H48.3874Z" fill="#F2F7FC"/>
<path fill-rule="evenodd" clip-rule="evenodd" d="M33.871 34.7399L43.1624 32.4191L42.3265 34.4585L41.8664 35.5594L41.4372 36.5657L40.9155 37.7631L40.5602 38.5538L40.3404 39.0282L40.1351 39.4616L39.8537 40.0346L39.6031 40.5152L39.4532 40.7842C39.4286 40.8253 39.406 40.8643 39.3834 40.9033L39.254 41.1087C39.2129 41.1703 39.1759 41.2258 39.139 41.273C38.9357 41.54 38.6358 41.6468 38.301 41.6715L38.1552 41.6776H33.4972C33.07 41.6817 32.5894 41.5544 32.3635 41.2073C32.1602 40.9013 32.1705 40.5501 32.2649 40.1968L33.8731 34.744L33.871 34.7399ZM26.0009 33.4091L22.037 40.9116C21.8009 41.3388 21.3449 41.6222 20.8335 41.6653L20.6795 41.6715H16.0667C15.925 41.6653 15.7832 41.6427 15.6477 41.6016C14.9165 41.3696 14.5037 40.6651 14.6762 39.9874L14.7153 39.86L15.5532 33.4296L26.0009 33.4091Z" fill="#5B90E9"/>
<path fill-rule="evenodd" clip-rule="evenodd" d="M16.8366 13.7809C16.8921 13.7809 16.9475 13.7851 17.003 13.7933C18.8719 14.05 20.6813 14.6107 22.3511 15.4527C24.0352 15.0399 25.8343 14.814 27.7032 14.814C37.2 14.814 44.5957 20.6201 44.5957 27.7796C44.5957 36.5185 37.1979 41.6735 27.7032 41.6735C18.2086 41.6735 10.5068 34.9412 10.5068 27.7796C10.5068 23.8486 12.8276 20.3243 16.4957 17.946C16.0521 17.0383 15.7789 16.1264 15.6988 15.2474L15.6783 14.9187C15.6721 14.8633 15.6721 14.8078 15.6783 14.7524C15.7214 14.4566 15.8857 14.1876 16.1342 14.0069C16.3376 13.859 16.5861 13.7809 16.8387 13.7809H16.8366Z" fill="#D0E5FF"/>
<path fill-rule="evenodd" clip-rule="evenodd" d="M14.1648 27.3503C14.481 27.8227 14.898 28.2314 15.3826 28.5477C16.1097 29.0201 16.9723 29.2768 17.8698 29.2768C20.2727 29.2768 22.2526 27.4448 22.2526 25.1446C22.2526 24.5736 21.7905 24.1115 21.2195 24.1115C20.6486 24.1115 20.1865 24.5736 20.1865 25.1446C20.1865 26.268 19.1657 27.2107 17.8698 27.2107C17.3707 27.2107 16.9004 27.071 16.5081 26.8164C16.3048 26.6829 16.1261 26.5227 15.9824 26.3419L15.8797 26.2023C15.5613 25.7278 14.9205 25.6026 14.4461 25.9188C13.9717 26.2372 13.8464 26.878 14.1627 27.3524L14.1648 27.3503Z" fill="#3262C4"/>
<path fill-rule="evenodd" clip-rule="evenodd" d="M10.7761 25.4711C10.5974 26.2208 10.505 26.991 10.505 27.7776C10.505 30.1066 11.3183 32.3883 12.7436 34.4093L10.852 34.438C9.48628 34.4729 8.30329 33.6185 8.04246 32.4356L8.01165 32.2713L7.43454 28.7079C7.33595 28.0979 7.48999 27.4921 7.84324 26.9951C8.05889 26.6932 8.34642 26.4282 8.69557 26.229L8.87425 26.1345L10.7761 25.4691V25.4711ZM26.0666 16.8801C30.9258 17.1923 34.4912 17.905 36.7915 19.053C37.3029 19.3077 37.5103 19.928 37.2556 20.4394C37.0009 20.9507 36.3807 21.1582 35.8693 20.9035C34.0887 20.0163 31.2647 19.3919 27.4221 19.0571L26.4403 18.9791C26.274 18.9668 26.1035 18.9565 25.9331 18.9442C25.3642 18.9072 24.9308 18.4164 24.9678 17.8475C25.0027 17.3196 25.4278 16.9089 25.9433 16.8822H26.0645L26.0666 16.8801Z" fill="#8FBAFC"/>
<path fill-rule="evenodd" clip-rule="evenodd" d="M32.197 7.58258C35.0498 7.58258 37.3623 9.89515 37.3623 12.7479C37.3623 15.6006 35.0498 17.9132 32.197 17.9132C29.3443 17.9132 27.0317 15.6006 27.0317 12.7479C27.0317 9.89515 29.3443 7.58258 32.197 7.58258Z" fill="white"/>
<path fill-rule="evenodd" clip-rule="evenodd" d="M34.2631 13.2654H32.7146V14.814C32.7146 15.0995 32.4846 15.3295 32.1991 15.3295C31.9136 15.3295 31.6836 15.0995 31.6836 14.814V13.2654H30.135C29.8495 13.2654 29.6195 13.0354 29.6195 12.7499C29.6195 12.4644 29.8495 12.2344 30.135 12.2344H31.6836V10.6838C31.6836 10.3983 31.9136 10.1683 32.1991 10.1683C32.4846 10.1683 32.7146 10.3983 32.7146 10.6838V12.2344H34.2631C34.5486 12.2344 34.7786 12.4644 34.7786 12.7499C34.7786 13.0354 34.5486 13.2654 34.2631 13.2654ZM32.197 7.58258C29.3443 7.58258 27.0317 9.89515 27.0317 12.7479C27.0317 15.6006 29.3443 17.9132 32.197 17.9132C35.0498 17.9132 37.3623 15.6006 37.3623 12.7479C37.3623 9.89515 35.0498 7.58258 32.197 7.58258Z" fill="#FF961F"/>
</g>
</svg>
