<svg width="52" height="52" viewBox="0 0 52 52" fill="none" xmlns="http://www.w3.org/2000/svg">
<circle cx="26.0001" cy="26.0001" r="22.88" fill="#DCEDFF"/>
<path fill-rule="evenodd" clip-rule="evenodd" d="M40.0494 19.1097C40.761 20.514 40.2561 22.2337 38.9254 23.0115L38.8186 23.0709C37.6763 23.6756 36.7575 26.8403 37.7478 29.9376C37.7941 30.0088 37.8392 30.0805 37.8831 30.1528L38.0119 30.3711L38.074 30.4814L38.1942 30.7045L38.3096 30.9308L38.4208 31.1604L38.5285 31.3932L38.6851 31.7488L38.8376 32.1121L39.0891 32.7348L39.4535 33.6442L39.6204 34.0476L39.7971 34.4595L39.9214 34.7389L40.0518 35.0221L40.2243 35.3816L40.4087 35.7472L40.486 35.8952L40.6474 36.1942L40.7315 36.3452L40.9073 36.6503L41.0935 36.9595C41.2533 37.2189 41.4246 37.4825 41.6094 37.7506L41.8376 38.0745C42.4753 38.9597 42.9799 39.6293 43.767 40.4163C40.2951 44.6913 35.311 47.6883 29.6295 48.5938C26.5603 45.5623 22.8256 43.0141 19.0244 41.7327C15.6253 40.8825 11.827 40.7366 8.74704 40.9698L8.2263 41.0134C7.02863 41.1236 5.95612 41.2916 5.08029 41.4964C3.76003 41.8054 2.44461 40.9615 2.14243 39.6122C1.84979 38.3053 2.61469 37.0033 3.86255 36.642C3.03023 36.4006 2.34918 35.714 2.14243 34.7907C1.84025 33.4414 2.66568 32.0971 3.98612 31.7883C4.35067 31.703 4.76566 31.6241 5.22409 31.553L5.21739 31.524C4.91521 30.1745 5.74064 28.8302 7.06108 28.5215C7.44912 28.4308 7.89474 28.3448 8.38953 28.2662C8.34985 27.0902 9.12922 26.0131 10.2933 25.741L10.6512 25.6613L10.9175 25.6064L11.2052 25.5505L11.675 25.4655L12.0127 25.4086L12.369 25.352L12.7432 25.2961L13.1346 25.2411L13.5424 25.1875L13.9657 25.1357L14.6284 25.062L15.0875 25.0161L15.5595 24.9732L16.0438 24.9337L16.5394 24.898L17.0458 24.8664L17.562 24.8393L18.0874 24.8171L18.6212 24.8001L19.1626 24.7887C19.2535 24.7873 19.3446 24.7861 19.436 24.7852L19.9874 24.7829C21.2811 24.785 22.6215 24.8404 23.9652 24.97C24.1448 24.7349 24.2946 24.5791 24.4078 24.5182L25.0089 24.6165L25.69 24.7379L26.3005 24.8539L26.9971 24.9943L27.6064 25.124L28.0885 25.2314L28.4201 25.3079L28.9303 25.4298L29.2777 25.5159L29.6296 25.6058L30.164 25.7479L30.5233 25.8474L30.8837 25.9508L31.2444 26.0579L31.6044 26.1689C31.6516 25.4912 31.7465 24.821 31.8895 24.1659C32.5335 21.2158 34.0549 18.9735 36.1734 17.8521C37.584 17.1054 39.319 17.6685 40.0494 19.1097Z" fill="#FFC8E9"/>
<path fill-rule="evenodd" clip-rule="evenodd" d="M16.38 17.6801C16.8107 17.6801 17.16 18.0293 17.16 18.4601C17.16 18.8908 16.8107 19.2401 16.38 19.2401H12.74C12.3092 19.2401 11.96 18.8908 11.96 18.4601C11.96 18.0293 12.3092 17.6801 12.74 17.6801H16.38ZM39.26 17.6801C39.6907 17.6801 40.04 18.0293 40.04 18.4601C40.04 18.8908 39.6907 19.2401 39.26 19.2401H35.62C35.1892 19.2401 34.84 18.8908 34.84 18.4601C34.84 18.0293 35.1892 17.6801 35.62 17.6801H39.26ZM17.355 9.42505L19.695 11.7651C20.018 12.0881 20.018 12.612 19.695 12.9351C19.3719 13.2581 18.848 13.2581 18.525 12.9351L16.185 10.5951C15.8619 10.272 15.8619 9.74814 16.185 9.42505C16.508 9.10196 17.0319 9.10196 17.355 9.42505ZM34.645 9.42505C34.968 9.10196 35.4919 9.10196 35.815 9.42505C36.119 9.72913 36.1369 10.211 35.8686 10.536L35.815 10.5951L33.475 12.9351C33.1519 13.2581 32.628 13.2581 32.305 12.9351C32.0009 12.631 31.983 12.1491 32.2513 11.8241L32.305 11.7651L34.645 9.42505ZM26 6.24005C26.4307 6.24005 26.78 6.58927 26.78 7.02005V10.6601C26.78 11.0908 26.4307 11.4401 26 11.4401C25.5692 11.4401 25.22 11.0908 25.22 10.6601V7.02005C25.22 6.58927 25.5692 6.24005 26 6.24005Z" fill="#FF9700"/>
<path fill-rule="evenodd" clip-rule="evenodd" d="M34.0189 35.5146C34.763 35.9063 35.3452 36.4775 35.5761 37.0427C35.6119 37.1307 35.5713 37.2319 35.4851 37.2688C35.4639 37.2778 35.4417 37.2821 35.4199 37.2821C35.3537 37.2821 35.291 37.2421 35.2637 37.1758C34.8841 36.2464 33.2607 35.0944 31.1994 35.3432C31.1079 35.3552 31.0225 35.287 31.0116 35.1921C31.0004 35.0973 31.0668 35.0113 31.1594 35C32.4222 34.8459 33.4115 35.1952 34.0189 35.5146ZM18.2189 35.7518C18.3112 35.7665 18.3744 35.8549 18.3598 35.9492C18.3453 36.0435 18.2587 36.1081 18.1667 36.0933C17.357 35.9639 16.5654 35.8675 15.7959 35.7989L15.223 35.7527C13.9909 35.6633 12.8197 35.6442 11.7258 35.6734L11.2265 35.6902C11.062 35.6969 10.8993 35.7047 10.7386 35.7134L10.2624 35.7425L9.79827 35.7771L9.34659 35.8165L8.90773 35.8605L8.48203 35.9084L8.06988 35.9599L7.67162 36.0144C7.60643 36.0237 7.54182 36.0331 7.47782 36.0426L7.1011 36.1008L6.73918 36.1608L6.39244 36.2221L6.06123 36.2843L5.74591 36.347L5.30355 36.4407L4.89899 36.5326L4.42051 36.6496L4.01433 36.7567C3.99962 36.7607 3.9849 36.7625 3.97035 36.7625C3.89577 36.7625 3.82737 36.7116 3.80697 36.6344C3.78306 36.5421 3.83657 36.4472 3.9267 36.4226L4.32192 36.3179L4.75524 36.2102L5.22563 36.1013L5.73207 35.9929L6.27354 35.8866L6.65347 35.8178C6.71804 35.8066 6.78322 35.7953 6.84901 35.7842L7.25103 35.719C7.31924 35.7083 7.38804 35.6978 7.45744 35.6874L7.88087 35.6267L8.3182 35.5698L8.76911 35.5171L9.23331 35.4691L9.71049 35.4263C9.79108 35.4196 9.87221 35.4132 9.95385 35.407L10.4499 35.373C12.71 35.2341 15.3412 35.2919 18.2189 35.7518ZM19.9372 31.1323C20.0295 31.147 20.0927 31.2353 20.0782 31.3297C20.0636 31.4239 19.9765 31.4891 19.885 31.4738C18.1241 31.1923 16.4427 31.0294 14.8738 30.9582L14.2908 30.9357C13.8095 30.9205 13.3396 30.9139 12.882 30.9151L12.339 30.9202C11.8021 30.929 11.2836 30.9485 10.7853 30.9774L10.2937 31.0093L9.81603 31.0472L9.35255 31.0906C8.82027 31.1444 8.31781 31.209 7.84794 31.2821L7.45324 31.3469C7.38881 31.358 7.32506 31.3693 7.26199 31.3807L6.89196 31.4511C6.83169 31.4631 6.77212 31.4753 6.71326 31.4876L6.36876 31.5629C6.14489 31.6142 5.93269 31.6674 5.73267 31.7221C5.71795 31.726 5.70324 31.7279 5.68869 31.7279C5.6141 31.7279 5.54571 31.677 5.52531 31.5997C5.50139 31.5074 5.55491 31.4126 5.64504 31.388L5.95785 31.3061L6.2887 31.2269C6.34532 31.214 6.40268 31.2011 6.46076 31.1884L6.81793 31.1137L7.19215 31.0425L7.58304 30.975C7.91561 30.9203 8.26514 30.8699 8.63059 30.8246L9.07671 30.7726C9.15232 30.7644 9.22854 30.7564 9.30538 30.7486L9.77371 30.7045C9.85297 30.6976 9.93282 30.691 10.0133 30.6846L10.5029 30.6491C10.5857 30.6437 10.669 30.6385 10.7529 30.6336L11.263 30.6075L11.7862 30.5879L12.3222 30.5753C12.9548 30.5648 13.6126 30.569 14.2928 30.5903L14.8812 30.6128C15.0792 30.6218 15.2789 30.6321 15.4803 30.644L16.0895 30.6842C17.318 30.7738 18.6052 30.9193 19.9372 31.1323ZM23.159 27.9636C23.2513 27.9783 23.3145 28.0666 23.2999 28.161C23.2854 28.2553 23.1983 28.3206 23.1068 28.305C21.3457 28.0235 19.6643 27.8606 18.0954 27.7894L17.5124 27.7669C16.8385 27.7456 16.187 27.7411 15.5606 27.7514L15.0299 27.7637C14.6802 27.7742 14.3391 27.7893 14.0068 27.8085L13.5153 27.8405C13.4345 27.8463 13.3543 27.8524 13.2747 27.8587L12.8041 27.8994C12.7268 27.9066 12.6502 27.9141 12.5741 27.9218L12.1253 27.9705C11.7574 28.0132 11.4051 28.0611 11.0695 28.1133L10.6748 28.1781C10.6104 28.1892 10.5466 28.2005 10.4836 28.2119L10.1136 28.2823L9.76045 28.3561L9.42465 28.433C9.26115 28.4721 9.10428 28.5123 8.95427 28.5534C8.93956 28.5573 8.92484 28.5592 8.91029 28.5592C8.83571 28.5592 8.76731 28.5082 8.74691 28.431C8.72299 28.3387 8.77651 28.2439 8.86664 28.2192C9.1197 28.1501 9.39195 28.0833 9.68238 28.0197L10.0396 27.945C10.1005 27.9329 10.1622 27.9208 10.2246 27.9089L10.6072 27.8395C11.1284 27.7495 11.6935 27.6698 12.2984 27.6039L12.7595 27.5572C12.8375 27.5498 12.9162 27.5427 12.9955 27.5358L13.4781 27.4974C13.5597 27.4915 13.6419 27.4858 13.7247 27.4804L14.2281 27.4511C15.3333 27.3944 16.5325 27.3831 17.8075 27.4319L18.4013 27.4587L19.0055 27.4943C20.3256 27.5814 21.7161 27.7329 23.159 27.9636Z" fill="#003CE5"/>
<path fill-rule="evenodd" clip-rule="evenodd" d="M35.3601 32.5131C35.3601 33.9932 33.3942 35.2815 30.4943 35.9463L30.1419 36.0231C30.0825 36.0354 30.0227 36.0474 29.9625 36.0592L29.5974 36.1266C29.1667 36.2017 28.7197 36.2636 28.2593 36.3113L27.8615 36.3487C27.2599 36.3994 26.6375 36.4261 26.0001 36.4261C25.3628 36.4261 24.7404 36.3994 24.1388 36.3487L23.741 36.3113C23.2805 36.2636 22.8336 36.2017 22.4029 36.1266L22.0378 36.0592C21.9776 36.0474 21.9178 36.0354 21.8583 36.0231L21.5059 35.9463C18.6641 35.2948 16.7191 34.0445 16.6425 32.6016L16.6401 32.5131V30.4851C16.6401 28.7619 18.037 27.3651 19.7601 27.3651H32.2401C33.9633 27.3651 35.3601 28.7619 35.3601 30.4851V32.5131Z" fill="#003CE5"/>
<path fill-rule="evenodd" clip-rule="evenodd" d="M19.7603 15.6H32.2403L34.8097 28.8535H17.1909L19.7603 15.6Z" fill="#FF9700"/>
<ellipse cx="26.0003" cy="28.8535" rx="8.80941" ry="1.9565" fill="#FD5C00"/>
<ellipse cx="26.0003" cy="15.6" rx="6.24" ry="1.56" fill="#FFC74A"/>
<ellipse cx="26" cy="29.4125" rx="2.75294" ry="0.838499" fill="#FF9700"/>
<ellipse cx="26" cy="28.2946" rx="2.75294" ry="0.8385" fill="#FFA900"/>
<ellipse cx="26" cy="25.22" rx="2.75294" ry="2.795" fill="#FFC74A"/>
</svg>
